solid 
   facet normal 0.000000e+00 1.000000e+00 0.000000e+00
      outer loop
         vertex 7.000000e+00 4.000000e+00 4.000000e+00
         vertex 1.000000e+00 4.000000e+00 4.000000e+00
         vertex 7.000000e+00 4.000000e+00 1.000000e+01
      endloop
   endfacet
   facet normal -0.000000e+00 1.000000e+00 0.000000e+00
      outer loop
         vertex 1.000000e+00 4.000000e+00 4.000000e+00
         vertex 6.000000e+00 4.000000e+00 1.000000e+01
         vertex 7.000000e+00 4.000000e+00 1.000000e+01
      endloop
   endfacet
   facet normal 0.000000e+00 1.000000e+00 0.000000e+00
      outer loop
         vertex 6.000000e+00 4.000000e+00 1.000000e+01
         vertex 5.000000e+00 4.000000e+00 1.000000e+01
         vertex 6.000000e+00 4.000000e+00 1.200000e+01
      endloop
   endfacet
   facet normal -0.000000e+00 1.000000e+00 0.000000e+00
      outer loop
         vertex 5.000000e+00 4.000000e+00 1.000000e+01
         vertex 5.000000e+00 4.000000e+00 1.200000e+01
         vertex 6.000000e+00 4.000000e+00 1.200000e+01
      endloop
   endfacet
   facet normal 0.000000e+00 1.000000e+00 0.000000e+00
      outer loop
         vertex 5.000000e+00 4.000000e+00 1.000000e+01
         vertex 1.000000e+00 4.000000e+00 4.000000e+00
         vertex 1.000000e+00 4.000000e+00 1.000000e+01
      endloop
   endfacet
   facet normal 0.000000e+00 1.000000e+00 0.000000e+00
      outer loop
         vertex 5.000000e+00 4.000000e+00 1.000000e+01
         vertex 6.000000e+00 4.000000e+00 1.000000e+01
         vertex 1.000000e+00 4.000000e+00 4.000000e+00
      endloop
   endfacet
   facet normal 0.000000e+00 -1.000000e+00 0.000000e+00
      outer loop
         vertex 1.000000e+00 -4.000000e+00 1.000000e+01
         vertex 1.000000e+00 -4.000000e+00 4.000000e+00
         vertex 5.000000e+00 -4.000000e+00 1.000000e+01
      endloop
   endfacet
   facet normal 0.000000e+00 -1.000000e+00 0.000000e+00
      outer loop
         vertex 1.000000e+00 -4.000000e+00 4.000000e+00
         vertex 7.000000e+00 -4.000000e+00 4.000000e+00
         vertex 5.000000e+00 -4.000000e+00 1.000000e+01
      endloop
   endfacet
   facet normal 0.000000e+00 -1.000000e+00 0.000000e+00
      outer loop
         vertex 5.000000e+00 -4.000000e+00 1.000000e+01
         vertex 7.000000e+00 -4.000000e+00 4.000000e+00
         vertex 5.000000e+00 -4.000000e+00 1.200000e+01
      endloop
   endfacet
   facet normal -0.000000e+00 -1.000000e+00 -0.000000e+00
      outer loop
         vertex 7.000000e+00 -4.000000e+00 4.000000e+00
         vertex 6.000000e+00 -4.000000e+00 1.000000e+01
         vertex 5.000000e+00 -4.000000e+00 1.200000e+01
      endloop
   endfacet
   facet normal 0.000000e+00 -1.000000e+00 0.000000e+00
      outer loop
         vertex 5.000000e+00 -4.000000e+00 1.200000e+01
         vertex 6.000000e+00 -4.000000e+00 1.000000e+01
         vertex 6.000000e+00 -4.000000e+00 1.200000e+01
      endloop
   endfacet
   facet normal 0.000000e+00 -1.000000e+00 0.000000e+00
      outer loop
         vertex 6.000000e+00 -4.000000e+00 1.000000e+01
         vertex 7.000000e+00 -4.000000e+00 4.000000e+00
         vertex 7.000000e+00 -4.000000e+00 1.000000e+01
      endloop
   endfacet
   facet normal 0.000000e+00 0.000000e+00 1.000000e+00
      outer loop
         vertex 6.000000e+00 -4.000000e+00 1.000000e+01
         vertex 7.000000e+00 -4.000000e+00 1.000000e+01
         vertex 6.000000e+00 -2.000000e+00 1.000000e+01
      endloop
   endfacet
   facet normal 0.000000e+00 0.000000e+00 1.000000e+00
      outer loop
         vertex 7.000000e+00 -4.000000e+00 1.000000e+01
         vertex 7.000000e+00 4.000000e+00 1.000000e+01
         vertex 6.000000e+00 -2.000000e+00 1.000000e+01
      endloop
   endfacet
   facet normal 0.000000e+00 0.000000e+00 1.000000e+00
      outer loop
         vertex 6.000000e+00 -2.000000e+00 1.000000e+01
         vertex 7.000000e+00 4.000000e+00 1.000000e+01
         vertex 5.000000e+00 -2.000000e+00 1.000000e+01
      endloop
   endfacet
   facet normal -0.000000e+00 0.000000e+00 1.000000e+00
      outer loop
         vertex 7.000000e+00 4.000000e+00 1.000000e+01
         vertex 6.000000e+00 2.000000e+00 1.000000e+01
         vertex 5.000000e+00 -2.000000e+00 1.000000e+01
      endloop
   endfacet
   facet normal -0.000000e+00 0.000000e+00 1.000000e+00
      outer loop
         vertex 6.000000e+00 2.000000e+00 1.000000e+01
         vertex 5.000000e+00 2.000000e+00 1.000000e+01
         vertex 5.000000e+00 -2.000000e+00 1.000000e+01
      endloop
   endfacet
   facet normal -0.000000e+00 0.000000e+00 1.000000e+00
      outer loop
         vertex 5.000000e+00 4.000000e+00 1.000000e+01
         vertex 1.000000e+00 4.000000e+00 1.000000e+01
         vertex 5.000000e+00 2.000000e+00 1.000000e+01
      endloop
   endfacet
   facet normal 0.000000e+00 0.000000e+00 1.000000e+00
      outer loop
         vertex 5.000000e+00 2.000000e+00 1.000000e+01
         vertex 1.000000e+00 4.000000e+00 1.000000e+01
         vertex 5.000000e+00 -2.000000e+00 1.000000e+01
      endloop
   endfacet
   facet normal -0.000000e+00 0.000000e+00 1.000000e+00
      outer loop
         vertex 1.000000e+00 4.000000e+00 1.000000e+01
         vertex 1.000000e+00 3.000000e+00 1.000000e+01
         vertex 5.000000e+00 -2.000000e+00 1.000000e+01
      endloop
   endfacet
   facet normal 0.000000e+00 0.000000e+00 1.000000e+00
      outer loop
         vertex 5.000000e+00 -2.000000e+00 1.000000e+01
         vertex 1.000000e+00 3.000000e+00 1.000000e+01
         vertex 5.000000e+00 -4.000000e+00 1.000000e+01
      endloop
   endfacet
   facet normal -0.000000e+00 0.000000e+00 1.000000e+00
      outer loop
         vertex 1.000000e+00 3.000000e+00 1.000000e+01
         vertex 1.000000e+00 -3.000000e+00 1.000000e+01
         vertex 5.000000e+00 -4.000000e+00 1.000000e+01
      endloop
   endfacet
   facet normal 0.000000e+00 0.000000e+00 1.000000e+00
      outer loop
         vertex 5.000000e+00 -4.000000e+00 1.000000e+01
         vertex 1.000000e+00 -3.000000e+00 1.000000e+01
         vertex 1.000000e+00 -4.000000e+00 1.000000e+01
      endloop
   endfacet
   facet normal 0.000000e+00 0.000000e+00 1.000000e+00
      outer loop
         vertex 6.000000e+00 2.000000e+00 1.000000e+01
         vertex 7.000000e+00 4.000000e+00 1.000000e+01
         vertex 6.000000e+00 4.000000e+00 1.000000e+01
      endloop
   endfacet
   facet normal 1.000000e+00 0.000000e+00 0.000000e+00
      outer loop
         vertex 6.000000e+00 2.000000e+00 1.200000e+01
         vertex 6.000000e+00 2.000000e+00 1.000000e+01
         vertex 6.000000e+00 4.000000e+00 1.000000e+01
      endloop
   endfacet
   facet normal 1.000000e+00 0.000000e+00 -0.000000e+00
      outer loop
         vertex 6.000000e+00 2.000000e+00 1.200000e+01
         vertex 6.000000e+00 4.000000e+00 1.000000e+01
         vertex 6.000000e+00 4.000000e+00 1.200000e+01
      endloop
   endfacet
   facet normal 0.000000e+00 -1.000000e+00 0.000000e+00
      outer loop
         vertex 5.000000e+00 2.000000e+00 1.200000e+01
         vertex 5.000000e+00 2.000000e+00 1.000000e+01
         vertex 6.000000e+00 2.000000e+00 1.000000e+01
      endloop
   endfacet
   facet normal 0.000000e+00 -1.000000e+00 0.000000e+00
      outer loop
         vertex 5.000000e+00 2.000000e+00 1.200000e+01
         vertex 6.000000e+00 2.000000e+00 1.000000e+01
         vertex 6.000000e+00 2.000000e+00 1.200000e+01
      endloop
   endfacet
   facet normal -1.000000e+00 0.000000e+00 0.000000e+00
      outer loop
         vertex 5.000000e+00 4.000000e+00 1.200000e+01
         vertex 5.000000e+00 4.000000e+00 1.000000e+01
         vertex 5.000000e+00 2.000000e+00 1.000000e+01
      endloop
   endfacet
   facet normal -1.000000e+00 0.000000e+00 0.000000e+00
      outer loop
         vertex 5.000000e+00 4.000000e+00 1.200000e+01
         vertex 5.000000e+00 2.000000e+00 1.000000e+01
         vertex 5.000000e+00 2.000000e+00 1.200000e+01
      endloop
   endfacet
   facet normal -1.000000e+00 0.000000e+00 0.000000e+00
      outer loop
         vertex 5.000000e+00 -2.000000e+00 1.200000e+01
         vertex 5.000000e+00 -2.000000e+00 1.000000e+01
         vertex 5.000000e+00 -4.000000e+00 1.000000e+01
      endloop
   endfacet
   facet normal -1.000000e+00 0.000000e+00 0.000000e+00
      outer loop
         vertex 5.000000e+00 -2.000000e+00 1.200000e+01
         vertex 5.000000e+00 -4.000000e+00 1.000000e+01
         vertex 5.000000e+00 -4.000000e+00 1.200000e+01
      endloop
   endfacet
   facet normal 0.000000e+00 1.000000e+00 -0.000000e+00
      outer loop
         vertex 6.000000e+00 -2.000000e+00 1.200000e+01
         vertex 6.000000e+00 -2.000000e+00 1.000000e+01
         vertex 5.000000e+00 -2.000000e+00 1.000000e+01
      endloop
   endfacet
   facet normal 0.000000e+00 1.000000e+00 0.000000e+00
      outer loop
         vertex 6.000000e+00 -2.000000e+00 1.200000e+01
         vertex 5.000000e+00 -2.000000e+00 1.000000e+01
         vertex 5.000000e+00 -2.000000e+00 1.200000e+01
      endloop
   endfacet
   facet normal 1.000000e+00 0.000000e+00 0.000000e+00
      outer loop
         vertex 6.000000e+00 -4.000000e+00 1.200000e+01
         vertex 6.000000e+00 -4.000000e+00 1.000000e+01
         vertex 6.000000e+00 -2.000000e+00 1.000000e+01
      endloop
   endfacet
   facet normal 1.000000e+00 0.000000e+00 -0.000000e+00
      outer loop
         vertex 6.000000e+00 -4.000000e+00 1.200000e+01
         vertex 6.000000e+00 -2.000000e+00 1.000000e+01
         vertex 6.000000e+00 -2.000000e+00 1.200000e+01
      endloop
   endfacet
   facet normal -1.000000e+00 0.000000e+00 0.000000e+00
      outer loop
         vertex 1.000000e+00 4.000000e+00 4.000000e+00
         vertex 1.000000e+00 3.000000e+00 4.000000e+00
         vertex 1.000000e+00 3.000000e+00 1.000000e+01
      endloop
   endfacet
   facet normal -1.000000e+00 0.000000e+00 0.000000e+00
      outer loop
         vertex 1.000000e+00 4.000000e+00 1.000000e+01
         vertex 1.000000e+00 4.000000e+00 4.000000e+00
         vertex 1.000000e+00 3.000000e+00 1.000000e+01
      endloop
   endfacet
   facet normal 0.000000e+00 0.000000e+00 1.000000e+00
      outer loop
         vertex 6.000000e+00 2.000000e+00 1.200000e+01
         vertex 6.000000e+00 4.000000e+00 1.200000e+01
         vertex 5.000000e+00 4.000000e+00 1.200000e+01
      endloop
   endfacet
   facet normal 0.000000e+00 0.000000e+00 1.000000e+00
      outer loop
         vertex 6.000000e+00 2.000000e+00 1.200000e+01
         vertex 5.000000e+00 4.000000e+00 1.200000e+01
         vertex 5.000000e+00 2.000000e+00 1.200000e+01
      endloop
   endfacet
   facet normal 1.000000e+00 0.000000e+00 0.000000e+00
      outer loop
         vertex 7.000000e+00 2.000000e+00 4.000000e+00
         vertex 7.000000e+00 4.000000e+00 4.000000e+00
         vertex 7.000000e+00 2.000000e+00 6.000000e+00
      endloop
   endfacet
   facet normal 1.000000e+00 0.000000e+00 0.000000e+00
      outer loop
         vertex 7.000000e+00 4.000000e+00 4.000000e+00
         vertex 7.000000e+00 4.000000e+00 1.000000e+01
         vertex 7.000000e+00 2.000000e+00 6.000000e+00
      endloop
   endfacet
   facet normal 1.000000e+00 0.000000e+00 0.000000e+00
      outer loop
         vertex 7.000000e+00 2.000000e+00 6.000000e+00
         vertex 7.000000e+00 4.000000e+00 1.000000e+01
         vertex 7.000000e+00 -2.000000e+00 6.000000e+00
      endloop
   endfacet
   facet normal 1.000000e+00 -0.000000e+00 0.000000e+00
      outer loop
         vertex 7.000000e+00 4.000000e+00 1.000000e+01
         vertex 7.000000e+00 -4.000000e+00 1.000000e+01
         vertex 7.000000e+00 -2.000000e+00 6.000000e+00
      endloop
   endfacet
   facet normal 1.000000e+00 0.000000e+00 0.000000e+00
      outer loop
         vertex 7.000000e+00 -2.000000e+00 6.000000e+00
         vertex 7.000000e+00 -4.000000e+00 1.000000e+01
         vertex 7.000000e+00 -2.000000e+00 4.000000e+00
      endloop
   endfacet
   facet normal 1.000000e+00 0.000000e+00 0.000000e+00
      outer loop
         vertex 7.000000e+00 -4.000000e+00 1.000000e+01
         vertex 7.000000e+00 -4.000000e+00 4.000000e+00
         vertex 7.000000e+00 -2.000000e+00 4.000000e+00
      endloop
   endfacet
   facet normal 0.000000e+00 0.000000e+00 -1.000000e+00
      outer loop
         vertex 1.000000e+00 -4.000000e+00 4.000000e+00
         vertex 1.000000e+00 -3.000000e+00 4.000000e+00
         vertex 7.000000e+00 -4.000000e+00 4.000000e+00
      endloop
   endfacet
   facet normal 0.000000e+00 0.000000e+00 -1.000000e+00
      outer loop
         vertex 1.000000e+00 -3.000000e+00 4.000000e+00
         vertex 1.000000e+00 -1.000000e+00 4.000000e+00
         vertex 7.000000e+00 -4.000000e+00 4.000000e+00
      endloop
   endfacet
   facet normal 0.000000e+00 0.000000e+00 -1.000000e+00
      outer loop
         vertex 7.000000e+00 -4.000000e+00 4.000000e+00
         vertex 1.000000e+00 -1.000000e+00 4.000000e+00
         vertex 7.000000e+00 -2.000000e+00 4.000000e+00
      endloop
   endfacet
   facet normal 0.000000e+00 0.000000e+00 -1.000000e+00
      outer loop
         vertex 1.000000e+00 -1.000000e+00 4.000000e+00
         vertex 1.000000e+00 1.000000e+00 4.000000e+00
         vertex 7.000000e+00 -2.000000e+00 4.000000e+00
      endloop
   endfacet
   facet normal 0.000000e+00 0.000000e+00 -1.000000e+00
      outer loop
         vertex 7.000000e+00 -2.000000e+00 4.000000e+00
         vertex 1.000000e+00 1.000000e+00 4.000000e+00
         vertex 1.000000e+01 -2.000000e+00 4.000000e+00
      endloop
   endfacet
   facet normal 0.000000e+00 0.000000e+00 -1.000000e+00
      outer loop
         vertex 1.000000e+00 1.000000e+00 4.000000e+00
         vertex 1.000000e+00 3.000000e+00 4.000000e+00
         vertex 1.000000e+01 -2.000000e+00 4.000000e+00
      endloop
   endfacet
   facet normal 0.000000e+00 0.000000e+00 -1.000000e+00
      outer loop
         vertex 1.000000e+01 -2.000000e+00 4.000000e+00
         vertex 7.000000e+00 2.000000e+00 4.000000e+00
         vertex 1.000000e+01 2.000000e+00 4.000000e+00
      endloop
   endfacet
   facet normal 0.000000e+00 0.000000e+00 -1.000000e+00
      outer loop
         vertex 1.000000e+01 -2.000000e+00 4.000000e+00
         vertex 1.000000e+00 3.000000e+00 4.000000e+00
         vertex 7.000000e+00 2.000000e+00 4.000000e+00
      endloop
   endfacet
   facet normal 0.000000e+00 0.000000e+00 -1.000000e+00
      outer loop
         vertex 1.000000e+00 3.000000e+00 4.000000e+00
         vertex 1.000000e+00 4.000000e+00 4.000000e+00
         vertex 7.000000e+00 2.000000e+00 4.000000e+00
      endloop
   endfacet
   facet normal 0.000000e+00 0.000000e+00 -1.000000e+00
      outer loop
         vertex 7.000000e+00 2.000000e+00 4.000000e+00
         vertex 1.000000e+00 4.000000e+00 4.000000e+00
         vertex 7.000000e+00 4.000000e+00 4.000000e+00
      endloop
   endfacet
   facet normal -1.000000e+00 -0.000000e+00 -0.000000e+00
      outer loop
         vertex 1.000000e+00 -4.000000e+00 1.000000e+01
         vertex 1.000000e+00 -3.000000e+00 1.000000e+01
         vertex 1.000000e+00 -3.000000e+00 4.000000e+00
      endloop
   endfacet
   facet normal -1.000000e+00 0.000000e+00 0.000000e+00
      outer loop
         vertex 1.000000e+00 -4.000000e+00 4.000000e+00
         vertex 1.000000e+00 -4.000000e+00 1.000000e+01
         vertex 1.000000e+00 -3.000000e+00 4.000000e+00
      endloop
   endfacet
   facet normal 0.000000e+00 -0.000000e+00 1.000000e+00
      outer loop
         vertex 5.000000e+00 -4.000000e+00 1.200000e+01
         vertex 6.000000e+00 -4.000000e+00 1.200000e+01
         vertex 6.000000e+00 -2.000000e+00 1.200000e+01
      endloop
   endfacet
   facet normal 0.000000e+00 0.000000e+00 1.000000e+00
      outer loop
         vertex 5.000000e+00 -4.000000e+00 1.200000e+01
         vertex 6.000000e+00 -2.000000e+00 1.200000e+01
         vertex 5.000000e+00 -2.000000e+00 1.200000e+01
      endloop
   endfacet
   facet normal 1.000000e+00 0.000000e+00 0.000000e+00
      outer loop
         vertex 1.000000e+00 -3.000000e+00 1.100000e+01
         vertex 1.000000e+00 -3.000000e+00 1.000000e+01
         vertex 1.000000e+00 3.000000e+00 1.000000e+01
      endloop
   endfacet
   facet normal 1.000000e+00 0.000000e+00 -0.000000e+00
      outer loop
         vertex 1.000000e+00 -3.000000e+00 1.100000e+01
         vertex 1.000000e+00 3.000000e+00 1.000000e+01
         vertex 1.000000e+00 3.000000e+00 1.100000e+01
      endloop
   endfacet
   facet normal 0.000000e+00 1.000000e+00 -0.000000e+00
      outer loop
         vertex 1.000000e+00 3.000000e+00 1.100000e+01
         vertex 1.000000e+00 3.000000e+00 1.000000e+01
         vertex -1.000000e+01 3.000000e+00 1.100000e+01
      endloop
   endfacet
   facet normal 0.000000e+00 1.000000e+00 -0.000000e+00
      outer loop
         vertex 1.000000e+00 3.000000e+00 1.000000e+01
         vertex 1.000000e+00 3.000000e+00 4.000000e+00
         vertex -1.000000e+01 3.000000e+00 1.100000e+01
      endloop
   endfacet
   facet normal 0.000000e+00 1.000000e+00 0.000000e+00
      outer loop
         vertex -1.000000e+01 3.000000e+00 1.100000e+01
         vertex -8.000000e+00 3.000000e+00 5.000000e+00
         vertex -1.000000e+01 3.000000e+00 0.000000e+00
      endloop
   endfacet
   facet normal 0.000000e+00 1.000000e+00 -0.000000e+00
      outer loop
         vertex -8.000000e+00 3.000000e+00 5.000000e+00
         vertex -8.000000e+00 3.000000e+00 0.000000e+00
         vertex -1.000000e+01 3.000000e+00 0.000000e+00
      endloop
   endfacet
   facet normal 0.000000e+00 1.000000e+00 0.000000e+00
      outer loop
         vertex -8.000000e+00 3.000000e+00 5.000000e+00
         vertex -1.000000e+01 3.000000e+00 1.100000e+01
         vertex -1.000000e+00 3.000000e+00 5.000000e+00
      endloop
   endfacet
   facet normal 0.000000e+00 1.000000e+00 0.000000e+00
      outer loop
         vertex -1.000000e+01 3.000000e+00 1.100000e+01
         vertex 1.000000e+00 3.000000e+00 4.000000e+00
         vertex -1.000000e+00 3.000000e+00 5.000000e+00
      endloop
   endfacet
   facet normal 0.000000e+00 1.000000e+00 0.000000e+00
      outer loop
         vertex -1.000000e+00 3.000000e+00 5.000000e+00
         vertex 1.000000e+00 3.000000e+00 4.000000e+00
         vertex -1.000000e+00 3.000000e+00 0.000000e+00
      endloop
   endfacet
   facet normal 0.000000e+00 1.000000e+00 -0.000000e+00
      outer loop
         vertex 1.000000e+00 3.000000e+00 4.000000e+00
         vertex 1.000000e+00 3.000000e+00 0.000000e+00
         vertex -1.000000e+00 3.000000e+00 0.000000e+00
      endloop
   endfacet
   facet normal 0.000000e+00 1.000000e+00 0.000000e+00
      outer loop
         vertex 1.000000e+01 2.000000e+00 4.000000e+00
         vertex 7.000000e+00 2.000000e+00 4.000000e+00
         vertex 7.000000e+00 2.000000e+00 6.000000e+00
      endloop
   endfacet
   facet normal -0.000000e+00 1.000000e+00 0.000000e+00
      outer loop
         vertex 1.000000e+01 2.000000e+00 4.000000e+00
         vertex 7.000000e+00 2.000000e+00 6.000000e+00
         vertex 1.000000e+01 2.000000e+00 6.000000e+00
      endloop
   endfacet
   facet normal 0.000000e+00 -1.000000e+00 0.000000e+00
      outer loop
         vertex 1.000000e+01 -2.000000e+00 6.000000e+00
         vertex 7.000000e+00 -2.000000e+00 6.000000e+00
         vertex 7.000000e+00 -2.000000e+00 4.000000e+00
      endloop
   endfacet
   facet normal 0.000000e+00 -1.000000e+00 0.000000e+00
      outer loop
         vertex 1.000000e+01 -2.000000e+00 6.000000e+00
         vertex 7.000000e+00 -2.000000e+00 4.000000e+00
         vertex 1.000000e+01 -2.000000e+00 4.000000e+00
      endloop
   endfacet
   facet normal -0.000000e+00 0.000000e+00 1.000000e+00
      outer loop
         vertex 1.000000e+01 2.000000e+00 6.000000e+00
         vertex 7.000000e+00 2.000000e+00 6.000000e+00
         vertex 7.000000e+00 -2.000000e+00 6.000000e+00
      endloop
   endfacet
   facet normal 0.000000e+00 0.000000e+00 1.000000e+00
      outer loop
         vertex 1.000000e+01 2.000000e+00 6.000000e+00
         vertex 7.000000e+00 -2.000000e+00 6.000000e+00
         vertex 1.000000e+01 -2.000000e+00 6.000000e+00
      endloop
   endfacet
   facet normal 1.000000e+00 0.000000e+00 0.000000e+00
      outer loop
         vertex 1.000000e+00 -1.000000e+00 0.000000e+00
         vertex 1.000000e+00 -1.000000e+00 4.000000e+00
         vertex 1.000000e+00 -3.000000e+00 4.000000e+00
      endloop
   endfacet
   facet normal 1.000000e+00 0.000000e+00 0.000000e+00
      outer loop
         vertex 1.000000e+00 -1.000000e+00 0.000000e+00
         vertex 1.000000e+00 -3.000000e+00 4.000000e+00
         vertex 1.000000e+00 -3.000000e+00 0.000000e+00
      endloop
   endfacet
   facet normal -1.000000e+00 0.000000e+00 0.000000e+00
      outer loop
         vertex 1.000000e+00 -1.000000e+00 4.000000e+00
         vertex 1.000000e+00 -1.000000e+00 5.000000e+00
         vertex 1.000000e+00 1.000000e+00 5.000000e+00
      endloop
   endfacet
   facet normal -1.000000e+00 0.000000e+00 0.000000e+00
      outer loop
         vertex 1.000000e+00 1.000000e+00 4.000000e+00
         vertex 1.000000e+00 -1.000000e+00 4.000000e+00
         vertex 1.000000e+00 1.000000e+00 5.000000e+00
      endloop
   endfacet
   facet normal 1.000000e+00 0.000000e+00 0.000000e+00
      outer loop
         vertex 1.000000e+00 3.000000e+00 0.000000e+00
         vertex 1.000000e+00 3.000000e+00 4.000000e+00
         vertex 1.000000e+00 1.000000e+00 4.000000e+00
      endloop
   endfacet
   facet normal 1.000000e+00 0.000000e+00 0.000000e+00
      outer loop
         vertex 1.000000e+00 3.000000e+00 0.000000e+00
         vertex 1.000000e+00 1.000000e+00 4.000000e+00
         vertex 1.000000e+00 1.000000e+00 0.000000e+00
      endloop
   endfacet
   facet normal 1.000000e+00 0.000000e+00 -0.000000e+00
      outer loop
         vertex 1.000000e+01 -2.000000e+00 4.000000e+00
         vertex 1.000000e+01 2.000000e+00 4.000000e+00
         vertex 1.000000e+01 2.000000e+00 6.000000e+00
      endloop
   endfacet
   facet normal 1.000000e+00 0.000000e+00 0.000000e+00
      outer loop
         vertex 1.000000e+01 -2.000000e+00 4.000000e+00
         vertex 1.000000e+01 2.000000e+00 6.000000e+00
         vertex 1.000000e+01 -2.000000e+00 6.000000e+00
      endloop
   endfacet
   facet normal 0.000000e+00 -1.000000e+00 -0.000000e+00
      outer loop
         vertex 1.000000e+00 -3.000000e+00 0.000000e+00
         vertex 1.000000e+00 -3.000000e+00 4.000000e+00
         vertex -1.000000e+00 -3.000000e+00 0.000000e+00
      endloop
   endfacet
   facet normal 0.000000e+00 -1.000000e+00 -0.000000e+00
      outer loop
         vertex 1.000000e+00 -3.000000e+00 4.000000e+00
         vertex 1.000000e+00 -3.000000e+00 1.000000e+01
         vertex -1.000000e+00 -3.000000e+00 0.000000e+00
      endloop
   endfacet
   facet normal 0.000000e+00 -1.000000e+00 0.000000e+00
      outer loop
         vertex -1.000000e+00 -3.000000e+00 0.000000e+00
         vertex 1.000000e+00 -3.000000e+00 1.000000e+01
         vertex -1.000000e+00 -3.000000e+00 5.000000e+00
      endloop
   endfacet
   facet normal 0.000000e+00 -1.000000e+00 -0.000000e+00
      outer loop
         vertex 1.000000e+00 -3.000000e+00 1.000000e+01
         vertex 1.000000e+00 -3.000000e+00 1.100000e+01
         vertex -1.000000e+00 -3.000000e+00 5.000000e+00
      endloop
   endfacet
   facet normal 0.000000e+00 -1.000000e+00 0.000000e+00
      outer loop
         vertex -1.000000e+00 -3.000000e+00 5.000000e+00
         vertex 1.000000e+00 -3.000000e+00 1.100000e+01
         vertex -8.000000e+00 -3.000000e+00 5.000000e+00
      endloop
   endfacet
   facet normal 0.000000e+00 -1.000000e+00 0.000000e+00
      outer loop
         vertex 1.000000e+00 -3.000000e+00 1.100000e+01
         vertex -1.000000e+01 -3.000000e+00 1.100000e+01
         vertex -8.000000e+00 -3.000000e+00 5.000000e+00
      endloop
   endfacet
   facet normal 0.000000e+00 -1.000000e+00 0.000000e+00
      outer loop
         vertex -8.000000e+00 -3.000000e+00 5.000000e+00
         vertex -1.000000e+01 -3.000000e+00 1.100000e+01
         vertex -8.000000e+00 -3.000000e+00 0.000000e+00
      endloop
   endfacet
   facet normal 0.000000e+00 -1.000000e+00 0.000000e+00
      outer loop
         vertex -1.000000e+01 -3.000000e+00 1.100000e+01
         vertex -1.000000e+01 -3.000000e+00 0.000000e+00
         vertex -8.000000e+00 -3.000000e+00 0.000000e+00
      endloop
   endfacet
   facet normal -0.000000e+00 0.000000e+00 1.000000e+00
      outer loop
         vertex 1.000000e+00 3.000000e+00 1.100000e+01
         vertex -1.000000e+01 3.000000e+00 1.100000e+01
         vertex -1.000000e+01 -3.000000e+00 1.100000e+01
      endloop
   endfacet
   facet normal 0.000000e+00 0.000000e+00 1.000000e+00
      outer loop
         vertex 1.000000e+00 3.000000e+00 1.100000e+01
         vertex -1.000000e+01 -3.000000e+00 1.100000e+01
         vertex 1.000000e+00 -3.000000e+00 1.100000e+01
      endloop
   endfacet
   facet normal 0.000000e+00 0.000000e+00 -1.000000e+00
      outer loop
         vertex 1.000000e+00 1.000000e+00 0.000000e+00
         vertex -1.000000e+00 1.000000e+00 0.000000e+00
         vertex -1.000000e+00 3.000000e+00 0.000000e+00
      endloop
   endfacet
   facet normal 0.000000e+00 0.000000e+00 -1.000000e+00
      outer loop
         vertex 1.000000e+00 3.000000e+00 0.000000e+00
         vertex 1.000000e+00 1.000000e+00 0.000000e+00
         vertex -1.000000e+00 3.000000e+00 0.000000e+00
      endloop
   endfacet
   facet normal -1.000000e+00 -0.000000e+00 -0.000000e+00
      outer loop
         vertex -1.000000e+00 1.000000e+00 5.000000e+00
         vertex -1.000000e+00 3.000000e+00 5.000000e+00
         vertex -1.000000e+00 3.000000e+00 0.000000e+00
      endloop
   endfacet
   facet normal -1.000000e+00 0.000000e+00 0.000000e+00
      outer loop
         vertex -1.000000e+00 1.000000e+00 0.000000e+00
         vertex -1.000000e+00 1.000000e+00 5.000000e+00
         vertex -1.000000e+00 3.000000e+00 0.000000e+00
      endloop
   endfacet
   facet normal 0.000000e+00 0.000000e+00 -1.000000e+00
      outer loop
         vertex 1.000000e+00 1.000000e+00 5.000000e+00
         vertex 1.000000e+00 -1.000000e+00 5.000000e+00
         vertex -1.000000e+00 1.000000e+00 5.000000e+00
      endloop
   endfacet
   facet normal 0.000000e+00 0.000000e+00 -1.000000e+00
      outer loop
         vertex 1.000000e+00 -1.000000e+00 5.000000e+00
         vertex -1.000000e+00 -1.000000e+00 5.000000e+00
         vertex -1.000000e+00 1.000000e+00 5.000000e+00
      endloop
   endfacet
   facet normal 0.000000e+00 0.000000e+00 -1.000000e+00
      outer loop
         vertex -1.000000e+00 -3.000000e+00 5.000000e+00
         vertex -8.000000e+00 -3.000000e+00 5.000000e+00
         vertex -1.000000e+00 -1.000000e+00 5.000000e+00
      endloop
   endfacet
   facet normal 0.000000e+00 0.000000e+00 -1.000000e+00
      outer loop
         vertex -8.000000e+00 -3.000000e+00 5.000000e+00
         vertex -8.000000e+00 -1.000000e+00 5.000000e+00
         vertex -1.000000e+00 -1.000000e+00 5.000000e+00
      endloop
   endfacet
   facet normal 0.000000e+00 0.000000e+00 -1.000000e+00
      outer loop
         vertex -1.000000e+00 -1.000000e+00 5.000000e+00
         vertex -8.000000e+00 -1.000000e+00 5.000000e+00
         vertex -1.000000e+00 1.000000e+00 5.000000e+00
      endloop
   endfacet
   facet normal 0.000000e+00 0.000000e+00 -1.000000e+00
      outer loop
         vertex -8.000000e+00 -1.000000e+00 5.000000e+00
         vertex -1.000000e+01 -1.000000e+00 5.000000e+00
         vertex -1.000000e+00 1.000000e+00 5.000000e+00
      endloop
   endfacet
   facet normal 0.000000e+00 0.000000e+00 -1.000000e+00
      outer loop
         vertex -1.000000e+00 1.000000e+00 5.000000e+00
         vertex -1.000000e+01 -1.000000e+00 5.000000e+00
         vertex -1.000000e+00 3.000000e+00 5.000000e+00
      endloop
   endfacet
   facet normal 0.000000e+00 0.000000e+00 -1.000000e+00
      outer loop
         vertex -1.000000e+01 -2.000000e+00 5.000000e+00
         vertex -1.900000e+01 -2.000000e+00 5.000000e+00
         vertex -1.000000e+01 -1.000000e+00 5.000000e+00
      endloop
   endfacet
   facet normal 0.000000e+00 -0.000000e+00 -1.000000e+00
      outer loop
         vertex -1.000000e+01 -1.000000e+00 5.000000e+00
         vertex -8.000000e+00 1.000000e+00 5.000000e+00
         vertex -1.000000e+00 3.000000e+00 5.000000e+00
      endloop
   endfacet
   facet normal 0.000000e+00 0.000000e+00 -1.000000e+00
      outer loop
         vertex -8.000000e+00 1.000000e+00 5.000000e+00
         vertex -8.000000e+00 3.000000e+00 5.000000e+00
         vertex -1.000000e+00 3.000000e+00 5.000000e+00
      endloop
   endfacet
   facet normal 0.000000e+00 0.000000e+00 -1.000000e+00
      outer loop
         vertex -8.000000e+00 1.000000e+00 5.000000e+00
         vertex -1.000000e+01 -1.000000e+00 5.000000e+00
         vertex -1.000000e+01 1.000000e+00 5.000000e+00
      endloop
   endfacet
   facet normal 0.000000e+00 0.000000e+00 -1.000000e+00
      outer loop
         vertex -1.000000e+01 -1.000000e+00 5.000000e+00
         vertex -1.900000e+01 -2.000000e+00 5.000000e+00
         vertex -1.000000e+01 1.000000e+00 5.000000e+00
      endloop
   endfacet
   facet normal 0.000000e+00 0.000000e+00 -1.000000e+00
      outer loop
         vertex -1.000000e+01 1.000000e+00 5.000000e+00
         vertex -1.900000e+01 -2.000000e+00 5.000000e+00
         vertex -1.000000e+01 2.000000e+00 5.000000e+00
      endloop
   endfacet
   facet normal 0.000000e+00 0.000000e+00 -1.000000e+00
      outer loop
         vertex -1.900000e+01 -2.000000e+00 5.000000e+00
         vertex -1.900000e+01 2.000000e+00 5.000000e+00
         vertex -1.000000e+01 2.000000e+00 5.000000e+00
      endloop
   endfacet
   facet normal 1.000000e+00 0.000000e+00 -0.000000e+00
      outer loop
         vertex -8.000000e+00 1.000000e+00 0.000000e+00
         vertex -8.000000e+00 3.000000e+00 0.000000e+00
         vertex -8.000000e+00 3.000000e+00 5.000000e+00
      endloop
   endfacet
   facet normal 1.000000e+00 0.000000e+00 0.000000e+00
      outer loop
         vertex -8.000000e+00 1.000000e+00 5.000000e+00
         vertex -8.000000e+00 1.000000e+00 0.000000e+00
         vertex -8.000000e+00 3.000000e+00 5.000000e+00
      endloop
   endfacet
   facet normal 0.000000e+00 0.000000e+00 -1.000000e+00
      outer loop
         vertex -8.000000e+00 3.000000e+00 0.000000e+00
         vertex -8.000000e+00 1.000000e+00 0.000000e+00
         vertex -1.000000e+01 1.000000e+00 0.000000e+00
      endloop
   endfacet
   facet normal -0.000000e+00 0.000000e+00 -1.000000e+00
      outer loop
         vertex -1.000000e+01 3.000000e+00 0.000000e+00
         vertex -8.000000e+00 3.000000e+00 0.000000e+00
         vertex -1.000000e+01 1.000000e+00 0.000000e+00
      endloop
   endfacet
   facet normal -1.000000e+00 0.000000e+00 0.000000e+00
      outer loop
         vertex -1.000000e+01 -1.000000e+00 5.000000e+00
         vertex -1.000000e+01 -1.000000e+00 0.000000e+00
         vertex -1.000000e+01 -2.000000e+00 5.000000e+00
      endloop
   endfacet
   facet normal -1.000000e+00 0.000000e+00 0.000000e+00
      outer loop
         vertex -1.000000e+01 -1.000000e+00 0.000000e+00
         vertex -1.000000e+01 -3.000000e+00 0.000000e+00
         vertex -1.000000e+01 -2.000000e+00 5.000000e+00
      endloop
   endfacet
   facet normal -1.000000e+00 0.000000e+00 0.000000e+00
      outer loop
         vertex -1.000000e+01 -2.000000e+00 5.000000e+00
         vertex -1.000000e+01 -3.000000e+00 0.000000e+00
         vertex -1.000000e+01 -2.000000e+00 1.000000e+01
      endloop
   endfacet
   facet normal -1.000000e+00 0.000000e+00 0.000000e+00
      outer loop
         vertex -1.000000e+01 -3.000000e+00 0.000000e+00
         vertex -1.000000e+01 -3.000000e+00 1.100000e+01
         vertex -1.000000e+01 -2.000000e+00 1.000000e+01
      endloop
   endfacet
   facet normal -1.000000e+00 0.000000e+00 0.000000e+00
      outer loop
         vertex -1.000000e+01 -2.000000e+00 1.000000e+01
         vertex -1.000000e+01 -3.000000e+00 1.100000e+01
         vertex -1.000000e+01 2.000000e+00 1.000000e+01
      endloop
   endfacet
   facet normal -1.000000e+00 -0.000000e+00 0.000000e+00
      outer loop
         vertex -1.000000e+01 -3.000000e+00 1.100000e+01
         vertex -1.000000e+01 3.000000e+00 1.100000e+01
         vertex -1.000000e+01 2.000000e+00 1.000000e+01
      endloop
   endfacet
   facet normal -1.000000e+00 0.000000e+00 0.000000e+00
      outer loop
         vertex -1.000000e+01 2.000000e+00 1.000000e+01
         vertex -1.000000e+01 3.000000e+00 1.100000e+01
         vertex -1.000000e+01 2.000000e+00 5.000000e+00
      endloop
   endfacet
   facet normal -1.000000e+00 0.000000e+00 0.000000e+00
      outer loop
         vertex -1.000000e+01 3.000000e+00 1.100000e+01
         vertex -1.000000e+01 3.000000e+00 0.000000e+00
         vertex -1.000000e+01 2.000000e+00 5.000000e+00
      endloop
   endfacet
   facet normal -1.000000e+00 0.000000e+00 0.000000e+00
      outer loop
         vertex -1.000000e+01 2.000000e+00 5.000000e+00
         vertex -1.000000e+01 3.000000e+00 0.000000e+00
         vertex -1.000000e+01 1.000000e+00 5.000000e+00
      endloop
   endfacet
   facet normal -1.000000e+00 0.000000e+00 0.000000e+00
      outer loop
         vertex -1.000000e+01 3.000000e+00 0.000000e+00
         vertex -1.000000e+01 1.000000e+00 0.000000e+00
         vertex -1.000000e+01 1.000000e+00 5.000000e+00
      endloop
   endfacet
   facet normal 0.000000e+00 0.000000e+00 -1.000000e+00
      outer loop
         vertex -1.000000e+00 -3.000000e+00 0.000000e+00
         vertex -1.000000e+00 -1.000000e+00 0.000000e+00
         vertex 1.000000e+00 -1.000000e+00 0.000000e+00
      endloop
   endfacet
   facet normal 0.000000e+00 0.000000e+00 -1.000000e+00
      outer loop
         vertex 1.000000e+00 -3.000000e+00 0.000000e+00
         vertex -1.000000e+00 -3.000000e+00 0.000000e+00
         vertex 1.000000e+00 -1.000000e+00 0.000000e+00
      endloop
   endfacet
   facet normal 0.000000e+00 1.000000e+00 0.000000e+00
      outer loop
         vertex -1.000000e+00 -1.000000e+00 5.000000e+00
         vertex 1.000000e+00 -1.000000e+00 5.000000e+00
         vertex -1.000000e+00 -1.000000e+00 0.000000e+00
      endloop
   endfacet
   facet normal 0.000000e+00 1.000000e+00 -0.000000e+00
      outer loop
         vertex 1.000000e+00 -1.000000e+00 5.000000e+00
         vertex 1.000000e+00 -1.000000e+00 4.000000e+00
         vertex -1.000000e+00 -1.000000e+00 0.000000e+00
      endloop
   endfacet
   facet normal 0.000000e+00 1.000000e+00 0.000000e+00
      outer loop
         vertex -1.000000e+00 -1.000000e+00 0.000000e+00
         vertex 1.000000e+00 -1.000000e+00 4.000000e+00
         vertex 1.000000e+00 -1.000000e+00 0.000000e+00
      endloop
   endfacet
   facet normal 0.000000e+00 -1.000000e+00 -0.000000e+00
      outer loop
         vertex 1.000000e+00 1.000000e+00 0.000000e+00
         vertex 1.000000e+00 1.000000e+00 4.000000e+00
         vertex -1.000000e+00 1.000000e+00 0.000000e+00
      endloop
   endfacet
   facet normal 0.000000e+00 -1.000000e+00 -0.000000e+00
      outer loop
         vertex 1.000000e+00 1.000000e+00 4.000000e+00
         vertex 1.000000e+00 1.000000e+00 5.000000e+00
         vertex -1.000000e+00 1.000000e+00 0.000000e+00
      endloop
   endfacet
   facet normal -0.000000e+00 -1.000000e+00 0.000000e+00
      outer loop
         vertex -1.000000e+00 1.000000e+00 0.000000e+00
         vertex 1.000000e+00 1.000000e+00 5.000000e+00
         vertex -1.000000e+00 1.000000e+00 5.000000e+00
      endloop
   endfacet
   facet normal -0.000000e+00 -0.000000e+00 -1.000000e+00
      outer loop
         vertex -1.000000e+01 -1.000000e+00 0.000000e+00
         vertex -8.000000e+00 -1.000000e+00 0.000000e+00
         vertex -8.000000e+00 -3.000000e+00 0.000000e+00
      endloop
   endfacet
   facet normal 0.000000e+00 0.000000e+00 -1.000000e+00
      outer loop
         vertex -1.000000e+01 -3.000000e+00 0.000000e+00
         vertex -1.000000e+01 -1.000000e+00 0.000000e+00
         vertex -8.000000e+00 -3.000000e+00 0.000000e+00
      endloop
   endfacet
   facet normal 1.000000e+00 -0.000000e+00 0.000000e+00
      outer loop
         vertex -8.000000e+00 -1.000000e+00 5.000000e+00
         vertex -8.000000e+00 -3.000000e+00 5.000000e+00
         vertex -8.000000e+00 -3.000000e+00 0.000000e+00
      endloop
   endfacet
   facet normal 1.000000e+00 0.000000e+00 0.000000e+00
      outer loop
         vertex -8.000000e+00 -1.000000e+00 0.000000e+00
         vertex -8.000000e+00 -1.000000e+00 5.000000e+00
         vertex -8.000000e+00 -3.000000e+00 0.000000e+00
      endloop
   endfacet
   facet normal -1.000000e+00 0.000000e+00 0.000000e+00
      outer loop
         vertex -1.000000e+00 -1.000000e+00 0.000000e+00
         vertex -1.000000e+00 -3.000000e+00 0.000000e+00
         vertex -1.000000e+00 -3.000000e+00 5.000000e+00
      endloop
   endfacet
   facet normal -1.000000e+00 0.000000e+00 0.000000e+00
      outer loop
         vertex -1.000000e+00 -1.000000e+00 5.000000e+00
         vertex -1.000000e+00 -1.000000e+00 0.000000e+00
         vertex -1.000000e+00 -3.000000e+00 5.000000e+00
      endloop
   endfacet
   facet normal 0.000000e+00 1.000000e+00 0.000000e+00
      outer loop
         vertex -8.000000e+00 -1.000000e+00 0.000000e+00
         vertex -1.000000e+01 -1.000000e+00 0.000000e+00
         vertex -1.000000e+01 -1.000000e+00 5.000000e+00
      endloop
   endfacet
   facet normal 0.000000e+00 1.000000e+00 -0.000000e+00
      outer loop
         vertex -8.000000e+00 -1.000000e+00 5.000000e+00
         vertex -8.000000e+00 -1.000000e+00 0.000000e+00
         vertex -1.000000e+01 -1.000000e+00 5.000000e+00
      endloop
   endfacet
   facet normal 0.000000e+00 -1.000000e+00 0.000000e+00
      outer loop
         vertex -1.900000e+01 -2.000000e+00 5.000000e+00
         vertex -1.000000e+01 -2.000000e+00 5.000000e+00
         vertex -1.000000e+01 -2.000000e+00 1.000000e+01
      endloop
   endfacet
   facet normal -0.000000e+00 -1.000000e+00 0.000000e+00
      outer loop
         vertex -1.900000e+01 -2.000000e+00 5.000000e+00
         vertex -1.000000e+01 -2.000000e+00 1.000000e+01
         vertex -1.900000e+01 -2.000000e+00 1.000000e+01
      endloop
   endfacet
   facet normal -1.000000e+00 0.000000e+00 0.000000e+00
      outer loop
         vertex -1.900000e+01 -2.000000e+00 5.000000e+00
         vertex -1.900000e+01 -2.000000e+00 1.000000e+01
         vertex -1.900000e+01 2.000000e+00 1.000000e+01
      endloop
   endfacet
   facet normal -1.000000e+00 0.000000e+00 -0.000000e+00
      outer loop
         vertex -1.900000e+01 -2.000000e+00 5.000000e+00
         vertex -1.900000e+01 2.000000e+00 1.000000e+01
         vertex -1.900000e+01 2.000000e+00 5.000000e+00
      endloop
   endfacet
   facet normal 0.000000e+00 1.000000e+00 0.000000e+00
      outer loop
         vertex -1.900000e+01 2.000000e+00 1.000000e+01
         vertex -1.000000e+01 2.000000e+00 1.000000e+01
         vertex -1.000000e+01 2.000000e+00 5.000000e+00
      endloop
   endfacet
   facet normal 0.000000e+00 1.000000e+00 0.000000e+00
      outer loop
         vertex -1.900000e+01 2.000000e+00 1.000000e+01
         vertex -1.000000e+01 2.000000e+00 5.000000e+00
         vertex -1.900000e+01 2.000000e+00 5.000000e+00
      endloop
   endfacet
   facet normal 0.000000e+00 -1.000000e+00 0.000000e+00
      outer loop
         vertex -8.000000e+00 1.000000e+00 5.000000e+00
         vertex -1.000000e+01 1.000000e+00 5.000000e+00
         vertex -1.000000e+01 1.000000e+00 0.000000e+00
      endloop
   endfacet
   facet normal 0.000000e+00 -1.000000e+00 -0.000000e+00
      outer loop
         vertex -8.000000e+00 1.000000e+00 0.000000e+00
         vertex -8.000000e+00 1.000000e+00 5.000000e+00
         vertex -1.000000e+01 1.000000e+00 0.000000e+00
      endloop
   endfacet
   facet normal 0.000000e+00 -0.000000e+00 1.000000e+00
      outer loop
         vertex -1.900000e+01 -2.000000e+00 1.000000e+01
         vertex -1.000000e+01 -2.000000e+00 1.000000e+01
         vertex -1.000000e+01 2.000000e+00 1.000000e+01
      endloop
   endfacet
   facet normal 0.000000e+00 0.000000e+00 1.000000e+00
      outer loop
         vertex -1.900000e+01 -2.000000e+00 1.000000e+01
         vertex -1.000000e+01 2.000000e+00 1.000000e+01
         vertex -1.900000e+01 2.000000e+00 1.000000e+01
      endloop
   endfacet
endsolid
