solid 
   facet normal 0.000000e+00 -1.000000e+00 0.000000e+00
      outer loop
         vertex -6.000000e+00 -1.000000e+00 9.000000e+00
         vertex -4.000000e+00 -1.000000e+00 9.000000e+00
         vertex -6.000000e+00 -1.000000e+00 4.400000e+01
      endloop
   endfacet
   facet normal -0.000000e+00 -1.000000e+00 -0.000000e+00
      outer loop
         vertex -4.000000e+00 -1.000000e+00 9.000000e+00
         vertex -4.000000e+00 -1.000000e+00 2.100000e+01
         vertex -6.000000e+00 -1.000000e+00 4.400000e+01
      endloop
   endfacet
   facet normal 0.000000e+00 -1.000000e+00 0.000000e+00
      outer loop
         vertex -6.000000e+00 -1.000000e+00 4.400000e+01
         vertex -4.000000e+00 -1.000000e+00 2.100000e+01
         vertex -4.000000e+00 -1.000000e+00 4.400000e+01
      endloop
   endfacet
   facet normal 0.000000e+00 -1.000000e+00 0.000000e+00
      outer loop
         vertex 4.000000e+00 -1.000000e+00 9.000000e+00
         vertex 6.000000e+00 -1.000000e+00 9.000000e+00
         vertex 4.000000e+00 -1.000000e+00 2.100000e+01
      endloop
   endfacet
   facet normal 0.000000e+00 -1.000000e+00 -0.000000e+00
      outer loop
         vertex 6.000000e+00 -1.000000e+00 9.000000e+00
         vertex 6.000000e+00 -1.000000e+00 4.400000e+01
         vertex 4.000000e+00 -1.000000e+00 2.100000e+01
      endloop
   endfacet
   facet normal -0.000000e+00 -1.000000e+00 0.000000e+00
      outer loop
         vertex 4.000000e+00 -1.000000e+00 2.100000e+01
         vertex 6.000000e+00 -1.000000e+00 4.400000e+01
         vertex 4.000000e+00 -1.000000e+00 4.400000e+01
      endloop
   endfacet
   facet normal 0.000000e+00 1.000000e+00 0.000000e+00
      outer loop
         vertex -4.000000e+00 1.000000e+00 9.000000e+00
         vertex -6.000000e+00 1.000000e+00 9.000000e+00
         vertex -4.000000e+00 1.000000e+00 2.100000e+01
      endloop
   endfacet
   facet normal 0.000000e+00 1.000000e+00 0.000000e+00
      outer loop
         vertex -6.000000e+00 1.000000e+00 9.000000e+00
         vertex -6.000000e+00 1.000000e+00 4.400000e+01
         vertex -4.000000e+00 1.000000e+00 2.100000e+01
      endloop
   endfacet
   facet normal -0.000000e+00 1.000000e+00 0.000000e+00
      outer loop
         vertex -4.000000e+00 1.000000e+00 2.100000e+01
         vertex -6.000000e+00 1.000000e+00 4.400000e+01
         vertex -4.000000e+00 1.000000e+00 4.400000e+01
      endloop
   endfacet
   facet normal 0.000000e+00 1.000000e+00 0.000000e+00
      outer loop
         vertex 6.000000e+00 1.000000e+00 9.000000e+00
         vertex 4.000000e+00 1.000000e+00 9.000000e+00
         vertex 6.000000e+00 1.000000e+00 4.400000e+01
      endloop
   endfacet
   facet normal -0.000000e+00 1.000000e+00 0.000000e+00
      outer loop
         vertex 4.000000e+00 1.000000e+00 9.000000e+00
         vertex 4.000000e+00 1.000000e+00 2.100000e+01
         vertex 6.000000e+00 1.000000e+00 4.400000e+01
      endloop
   endfacet
   facet normal 0.000000e+00 1.000000e+00 0.000000e+00
      outer loop
         vertex 6.000000e+00 1.000000e+00 4.400000e+01
         vertex 4.000000e+00 1.000000e+00 2.100000e+01
         vertex 4.000000e+00 1.000000e+00 4.400000e+01
      endloop
   endfacet
   facet normal -1.000000e+00 0.000000e+00 0.000000e+00
      outer loop
         vertex -6.000000e+00 1.000000e+00 4.400000e+01
         vertex -6.000000e+00 1.000000e+00 9.000000e+00
         vertex -6.000000e+00 -1.000000e+00 9.000000e+00
      endloop
   endfacet
   facet normal -1.000000e+00 -0.000000e+00 0.000000e+00
      outer loop
         vertex -6.000000e+00 -1.000000e+00 4.400000e+01
         vertex -6.000000e+00 1.000000e+00 4.400000e+01
         vertex -6.000000e+00 -1.000000e+00 9.000000e+00
      endloop
   endfacet
   facet normal 1.000000e+00 0.000000e+00 -0.000000e+00
      outer loop
         vertex 6.000000e+00 -1.000000e+00 9.000000e+00
         vertex 6.000000e+00 1.000000e+00 9.000000e+00
         vertex 6.000000e+00 1.000000e+00 4.400000e+01
      endloop
   endfacet
   facet normal 1.000000e+00 0.000000e+00 0.000000e+00
      outer loop
         vertex 6.000000e+00 -1.000000e+00 9.000000e+00
         vertex 6.000000e+00 1.000000e+00 4.400000e+01
         vertex 6.000000e+00 -1.000000e+00 4.400000e+01
      endloop
   endfacet
   facet normal 0.000000e+00 0.000000e+00 1.000000e+00
      outer loop
         vertex 4.000000e+00 -2.000000e+00 2.100000e+01
         vertex 4.000000e+00 -1.000000e+00 2.100000e+01
         vertex -4.000000e+00 -2.000000e+00 2.100000e+01
      endloop
   endfacet
   facet normal -0.000000e+00 0.000000e+00 1.000000e+00
      outer loop
         vertex 4.000000e+00 -1.000000e+00 2.100000e+01
         vertex 3.000000e+00 -1.000000e+00 2.100000e+01
         vertex -4.000000e+00 -2.000000e+00 2.100000e+01
      endloop
   endfacet
   facet normal 0.000000e+00 0.000000e+00 1.000000e+00
      outer loop
         vertex -4.000000e+00 -2.000000e+00 2.100000e+01
         vertex -3.000000e+00 -1.000000e+00 2.100000e+01
         vertex -4.000000e+00 -1.000000e+00 2.100000e+01
      endloop
   endfacet
   facet normal 0.000000e+00 0.000000e+00 1.000000e+00
      outer loop
         vertex -3.000000e+00 -1.000000e+00 2.100000e+01
         vertex -3.000000e+00 1.000000e+00 2.100000e+01
         vertex -4.000000e+00 -1.000000e+00 2.100000e+01
      endloop
   endfacet
   facet normal 0.000000e+00 0.000000e+00 1.000000e+00
      outer loop
         vertex -4.000000e+00 -1.000000e+00 2.100000e+01
         vertex -3.000000e+00 1.000000e+00 2.100000e+01
         vertex -4.000000e+00 1.000000e+00 2.100000e+01
      endloop
   endfacet
   facet normal 0.000000e+00 0.000000e+00 1.000000e+00
      outer loop
         vertex -4.000000e+00 -2.000000e+00 2.100000e+01
         vertex 1.000000e+00 -1.000000e+00 2.100000e+01
         vertex -1.000000e+00 -1.000000e+00 2.100000e+01
      endloop
   endfacet
   facet normal 0.000000e+00 0.000000e+00 1.000000e+00
      outer loop
         vertex -1.000000e+00 -1.000000e+00 2.100000e+01
         vertex 1.000000e+00 -1.000000e+00 2.100000e+01
         vertex -1.000000e+00 1.000000e+00 2.100000e+01
      endloop
   endfacet
   facet normal 0.000000e+00 0.000000e+00 1.000000e+00
      outer loop
         vertex 1.000000e+00 -1.000000e+00 2.100000e+01
         vertex 1.000000e+00 1.000000e+00 2.100000e+01
         vertex -1.000000e+00 1.000000e+00 2.100000e+01
      endloop
   endfacet
   facet normal 0.000000e+00 0.000000e+00 1.000000e+00
      outer loop
         vertex 3.000000e+00 -1.000000e+00 2.100000e+01
         vertex 4.000000e+00 -1.000000e+00 2.100000e+01
         vertex 3.000000e+00 1.000000e+00 2.100000e+01
      endloop
   endfacet
   facet normal 0.000000e+00 0.000000e+00 1.000000e+00
      outer loop
         vertex 4.000000e+00 -1.000000e+00 2.100000e+01
         vertex 4.000000e+00 1.000000e+00 2.100000e+01
         vertex 3.000000e+00 1.000000e+00 2.100000e+01
      endloop
   endfacet
   facet normal 0.000000e+00 0.000000e+00 1.000000e+00
      outer loop
         vertex 4.000000e+00 1.000000e+00 2.100000e+01
         vertex 4.000000e+00 2.000000e+00 2.100000e+01
         vertex 3.000000e+00 1.000000e+00 2.100000e+01
      endloop
   endfacet
   facet normal -0.000000e+00 0.000000e+00 1.000000e+00
      outer loop
         vertex 4.000000e+00 2.000000e+00 2.100000e+01
         vertex -4.000000e+00 2.000000e+00 2.100000e+01
         vertex 3.000000e+00 1.000000e+00 2.100000e+01
      endloop
   endfacet
   facet normal 0.000000e+00 0.000000e+00 1.000000e+00
      outer loop
         vertex 3.000000e+00 1.000000e+00 2.100000e+01
         vertex -4.000000e+00 2.000000e+00 2.100000e+01
         vertex 1.000000e+00 1.000000e+00 2.100000e+01
      endloop
   endfacet
   facet normal 0.000000e+00 -0.000000e+00 1.000000e+00
      outer loop
         vertex -4.000000e+00 2.000000e+00 2.100000e+01
         vertex -1.000000e+00 1.000000e+00 2.100000e+01
         vertex 1.000000e+00 1.000000e+00 2.100000e+01
      endloop
   endfacet
   facet normal 0.000000e+00 0.000000e+00 1.000000e+00
      outer loop
         vertex -1.000000e+00 1.000000e+00 2.100000e+01
         vertex -4.000000e+00 2.000000e+00 2.100000e+01
         vertex -3.000000e+00 1.000000e+00 2.100000e+01
      endloop
   endfacet
   facet normal 0.000000e+00 0.000000e+00 1.000000e+00
      outer loop
         vertex -3.000000e+00 1.000000e+00 2.100000e+01
         vertex -4.000000e+00 2.000000e+00 2.100000e+01
         vertex -4.000000e+00 1.000000e+00 2.100000e+01
      endloop
   endfacet
   facet normal 0.000000e+00 0.000000e+00 1.000000e+00
      outer loop
         vertex 1.000000e+00 -1.000000e+00 2.100000e+01
         vertex -4.000000e+00 -2.000000e+00 2.100000e+01
         vertex 3.000000e+00 -1.000000e+00 2.100000e+01
      endloop
   endfacet
   facet normal 0.000000e+00 0.000000e+00 1.000000e+00
      outer loop
         vertex -3.000000e+00 -1.000000e+00 2.100000e+01
         vertex -4.000000e+00 -2.000000e+00 2.100000e+01
         vertex -1.000000e+00 -1.000000e+00 2.100000e+01
      endloop
   endfacet
   facet normal -1.000000e+00 -0.000000e+00 0.000000e+00
      outer loop
         vertex -4.000000e+00 1.000000e+00 2.100000e+01
         vertex -4.000000e+00 2.000000e+00 2.100000e+01
         vertex -4.000000e+00 1.000000e+00 9.000000e+00
      endloop
   endfacet
   facet normal -1.000000e+00 0.000000e+00 0.000000e+00
      outer loop
         vertex -4.000000e+00 2.000000e+00 2.100000e+01
         vertex -4.000000e+00 2.000000e+00 8.000000e+00
         vertex -4.000000e+00 1.000000e+00 9.000000e+00
      endloop
   endfacet
   facet normal -1.000000e+00 0.000000e+00 0.000000e+00
      outer loop
         vertex -4.000000e+00 1.000000e+00 9.000000e+00
         vertex -4.000000e+00 2.000000e+00 8.000000e+00
         vertex -4.000000e+00 -1.000000e+00 9.000000e+00
      endloop
   endfacet
   facet normal -1.000000e+00 0.000000e+00 0.000000e+00
      outer loop
         vertex -4.000000e+00 4.000000e+00 8.000000e+00
         vertex -4.000000e+00 4.000000e+00 0.000000e+00
         vertex -4.000000e+00 2.000000e+00 8.000000e+00
      endloop
   endfacet
   facet normal -1.000000e+00 0.000000e+00 0.000000e+00
      outer loop
         vertex -4.000000e+00 2.000000e+00 8.000000e+00
         vertex -4.000000e+00 4.000000e+00 0.000000e+00
         vertex -4.000000e+00 -1.000000e+00 9.000000e+00
      endloop
   endfacet
   facet normal -1.000000e+00 0.000000e+00 0.000000e+00
      outer loop
         vertex -4.000000e+00 4.000000e+00 0.000000e+00
         vertex -4.000000e+00 -4.000000e+00 0.000000e+00
         vertex -4.000000e+00 -1.000000e+00 9.000000e+00
      endloop
   endfacet
   facet normal -1.000000e+00 0.000000e+00 0.000000e+00
      outer loop
         vertex -4.000000e+00 -1.000000e+00 9.000000e+00
         vertex -4.000000e+00 -2.000000e+00 8.000000e+00
         vertex -4.000000e+00 -1.000000e+00 2.100000e+01
      endloop
   endfacet
   facet normal -1.000000e+00 0.000000e+00 0.000000e+00
      outer loop
         vertex -4.000000e+00 -2.000000e+00 8.000000e+00
         vertex -4.000000e+00 -2.000000e+00 2.100000e+01
         vertex -4.000000e+00 -1.000000e+00 2.100000e+01
      endloop
   endfacet
   facet normal -1.000000e+00 0.000000e+00 0.000000e+00
      outer loop
         vertex -4.000000e+00 -1.000000e+00 9.000000e+00
         vertex -4.000000e+00 -4.000000e+00 0.000000e+00
         vertex -4.000000e+00 -2.000000e+00 8.000000e+00
      endloop
   endfacet
   facet normal -1.000000e+00 0.000000e+00 0.000000e+00
      outer loop
         vertex -4.000000e+00 -4.000000e+00 0.000000e+00
         vertex -4.000000e+00 -4.000000e+00 8.000000e+00
         vertex -4.000000e+00 -2.000000e+00 8.000000e+00
      endloop
   endfacet
   facet normal 1.000000e+00 -0.000000e+00 0.000000e+00
      outer loop
         vertex 4.000000e+00 2.000000e+00 2.100000e+01
         vertex 4.000000e+00 1.000000e+00 2.100000e+01
         vertex 4.000000e+00 2.000000e+00 8.000000e+00
      endloop
   endfacet
   facet normal 1.000000e+00 -0.000000e+00 0.000000e+00
      outer loop
         vertex 4.000000e+00 1.000000e+00 2.100000e+01
         vertex 4.000000e+00 1.000000e+00 9.000000e+00
         vertex 4.000000e+00 2.000000e+00 8.000000e+00
      endloop
   endfacet
   facet normal 1.000000e+00 -0.000000e+00 0.000000e+00
      outer loop
         vertex 4.000000e+00 1.000000e+00 9.000000e+00
         vertex 4.000000e+00 -1.000000e+00 9.000000e+00
         vertex 4.000000e+00 2.000000e+00 8.000000e+00
      endloop
   endfacet
   facet normal 1.000000e+00 -0.000000e+00 0.000000e+00
      outer loop
         vertex 4.000000e+00 -1.000000e+00 2.100000e+01
         vertex 4.000000e+00 -2.000000e+00 2.100000e+01
         vertex 4.000000e+00 -1.000000e+00 9.000000e+00
      endloop
   endfacet
   facet normal 1.000000e+00 0.000000e+00 0.000000e+00
      outer loop
         vertex 4.000000e+00 -2.000000e+00 2.100000e+01
         vertex 4.000000e+00 -2.000000e+00 8.000000e+00
         vertex 4.000000e+00 -1.000000e+00 9.000000e+00
      endloop
   endfacet
   facet normal 1.000000e+00 0.000000e+00 0.000000e+00
      outer loop
         vertex 4.000000e+00 -4.000000e+00 8.000000e+00
         vertex 4.000000e+00 -4.000000e+00 0.000000e+00
         vertex 4.000000e+00 -2.000000e+00 8.000000e+00
      endloop
   endfacet
   facet normal 1.000000e+00 0.000000e+00 0.000000e+00
      outer loop
         vertex 4.000000e+00 -2.000000e+00 8.000000e+00
         vertex 4.000000e+00 -4.000000e+00 0.000000e+00
         vertex 4.000000e+00 -1.000000e+00 9.000000e+00
      endloop
   endfacet
   facet normal 1.000000e+00 0.000000e+00 0.000000e+00
      outer loop
         vertex 4.000000e+00 -4.000000e+00 0.000000e+00
         vertex 4.000000e+00 4.000000e+00 0.000000e+00
         vertex 4.000000e+00 -1.000000e+00 9.000000e+00
      endloop
   endfacet
   facet normal 1.000000e+00 0.000000e+00 0.000000e+00
      outer loop
         vertex 4.000000e+00 -1.000000e+00 9.000000e+00
         vertex 4.000000e+00 4.000000e+00 0.000000e+00
         vertex 4.000000e+00 2.000000e+00 8.000000e+00
      endloop
   endfacet
   facet normal 1.000000e+00 0.000000e+00 0.000000e+00
      outer loop
         vertex 4.000000e+00 4.000000e+00 0.000000e+00
         vertex 4.000000e+00 4.000000e+00 8.000000e+00
         vertex 4.000000e+00 2.000000e+00 8.000000e+00
      endloop
   endfacet
   facet normal 1.000000e+00 0.000000e+00 0.000000e+00
      outer loop
         vertex -4.000000e+00 -1.000000e+00 4.400000e+01
         vertex -4.000000e+00 -1.000000e+00 2.100000e+01
         vertex -4.000000e+00 1.000000e+00 2.100000e+01
      endloop
   endfacet
   facet normal 1.000000e+00 0.000000e+00 -0.000000e+00
      outer loop
         vertex -4.000000e+00 -1.000000e+00 4.400000e+01
         vertex -4.000000e+00 1.000000e+00 2.100000e+01
         vertex -4.000000e+00 1.000000e+00 4.400000e+01
      endloop
   endfacet
   facet normal -1.000000e+00 0.000000e+00 0.000000e+00
      outer loop
         vertex 4.000000e+00 1.000000e+00 4.400000e+01
         vertex 4.000000e+00 1.000000e+00 2.100000e+01
         vertex 4.000000e+00 -1.000000e+00 2.100000e+01
      endloop
   endfacet
   facet normal -1.000000e+00 0.000000e+00 0.000000e+00
      outer loop
         vertex 4.000000e+00 1.000000e+00 4.400000e+01
         vertex 4.000000e+00 -1.000000e+00 2.100000e+01
         vertex 4.000000e+00 -1.000000e+00 4.400000e+01
      endloop
   endfacet
   facet normal 0.000000e+00 -0.000000e+00 1.000000e+00
      outer loop
         vertex -6.000000e+00 -1.000000e+00 4.400000e+01
         vertex -4.000000e+00 -1.000000e+00 4.400000e+01
         vertex -4.000000e+00 1.000000e+00 4.400000e+01
      endloop
   endfacet
   facet normal 0.000000e+00 0.000000e+00 1.000000e+00
      outer loop
         vertex -6.000000e+00 -1.000000e+00 4.400000e+01
         vertex -4.000000e+00 1.000000e+00 4.400000e+01
         vertex -6.000000e+00 1.000000e+00 4.400000e+01
      endloop
   endfacet
   facet normal -0.000000e+00 -0.000000e+00 -1.000000e+00
      outer loop
         vertex -6.000000e+00 1.000000e+00 9.000000e+00
         vertex -4.000000e+00 1.000000e+00 9.000000e+00
         vertex -4.000000e+00 -1.000000e+00 9.000000e+00
      endloop
   endfacet
   facet normal 0.000000e+00 0.000000e+00 -1.000000e+00
      outer loop
         vertex -6.000000e+00 1.000000e+00 9.000000e+00
         vertex -4.000000e+00 -1.000000e+00 9.000000e+00
         vertex -6.000000e+00 -1.000000e+00 9.000000e+00
      endloop
   endfacet
   facet normal 0.000000e+00 0.000000e+00 -1.000000e+00
      outer loop
         vertex 6.000000e+00 -1.000000e+00 9.000000e+00
         vertex 4.000000e+00 -1.000000e+00 9.000000e+00
         vertex 4.000000e+00 1.000000e+00 9.000000e+00
      endloop
   endfacet
   facet normal 0.000000e+00 0.000000e+00 -1.000000e+00
      outer loop
         vertex 6.000000e+00 -1.000000e+00 9.000000e+00
         vertex 4.000000e+00 1.000000e+00 9.000000e+00
         vertex 6.000000e+00 1.000000e+00 9.000000e+00
      endloop
   endfacet
   facet normal 0.000000e+00 -0.000000e+00 1.000000e+00
      outer loop
         vertex 4.000000e+00 -1.000000e+00 4.400000e+01
         vertex 6.000000e+00 -1.000000e+00 4.400000e+01
         vertex 6.000000e+00 1.000000e+00 4.400000e+01
      endloop
   endfacet
   facet normal 0.000000e+00 0.000000e+00 1.000000e+00
      outer loop
         vertex 4.000000e+00 -1.000000e+00 4.400000e+01
         vertex 6.000000e+00 1.000000e+00 4.400000e+01
         vertex 4.000000e+00 1.000000e+00 4.400000e+01
      endloop
   endfacet
   facet normal 0.000000e+00 1.000000e+00 -0.000000e+00
      outer loop
         vertex 4.000000e+00 2.000000e+00 2.100000e+01
         vertex 4.000000e+00 2.000000e+00 8.000000e+00
         vertex -4.000000e+00 2.000000e+00 8.000000e+00
      endloop
   endfacet
   facet normal 0.000000e+00 1.000000e+00 0.000000e+00
      outer loop
         vertex 4.000000e+00 2.000000e+00 2.100000e+01
         vertex -4.000000e+00 2.000000e+00 8.000000e+00
         vertex -4.000000e+00 2.000000e+00 2.100000e+01
      endloop
   endfacet
   facet normal 0.000000e+00 -1.000000e+00 0.000000e+00
      outer loop
         vertex -4.000000e+00 -2.000000e+00 2.100000e+01
         vertex -4.000000e+00 -2.000000e+00 8.000000e+00
         vertex 4.000000e+00 -2.000000e+00 8.000000e+00
      endloop
   endfacet
   facet normal 0.000000e+00 -1.000000e+00 0.000000e+00
      outer loop
         vertex -4.000000e+00 -2.000000e+00 2.100000e+01
         vertex 4.000000e+00 -2.000000e+00 8.000000e+00
         vertex 4.000000e+00 -2.000000e+00 2.100000e+01
      endloop
   endfacet
   facet normal 0.000000e+00 1.000000e+00 -0.000000e+00
      outer loop
         vertex -1.000000e+00 1.000000e+00 5.100000e+01
         vertex -1.000000e+00 1.000000e+00 2.100000e+01
         vertex -3.000000e+00 1.000000e+00 2.100000e+01
      endloop
   endfacet
   facet normal 0.000000e+00 1.000000e+00 0.000000e+00
      outer loop
         vertex -1.000000e+00 1.000000e+00 5.100000e+01
         vertex -3.000000e+00 1.000000e+00 2.100000e+01
         vertex -3.000000e+00 1.000000e+00 5.100000e+01
      endloop
   endfacet
   facet normal 1.000000e+00 0.000000e+00 0.000000e+00
      outer loop
         vertex -1.000000e+00 -1.000000e+00 5.100000e+01
         vertex -1.000000e+00 -1.000000e+00 2.100000e+01
         vertex -1.000000e+00 1.000000e+00 2.100000e+01
      endloop
   endfacet
   facet normal 1.000000e+00 0.000000e+00 -0.000000e+00
      outer loop
         vertex -1.000000e+00 -1.000000e+00 5.100000e+01
         vertex -1.000000e+00 1.000000e+00 2.100000e+01
         vertex -1.000000e+00 1.000000e+00 5.100000e+01
      endloop
   endfacet
   facet normal 0.000000e+00 -1.000000e+00 0.000000e+00
      outer loop
         vertex -3.000000e+00 -1.000000e+00 5.100000e+01
         vertex -3.000000e+00 -1.000000e+00 2.100000e+01
         vertex -1.000000e+00 -1.000000e+00 2.100000e+01
      endloop
   endfacet
   facet normal 0.000000e+00 -1.000000e+00 0.000000e+00
      outer loop
         vertex -3.000000e+00 -1.000000e+00 5.100000e+01
         vertex -1.000000e+00 -1.000000e+00 2.100000e+01
         vertex -1.000000e+00 -1.000000e+00 5.100000e+01
      endloop
   endfacet
   facet normal -1.000000e+00 0.000000e+00 0.000000e+00
      outer loop
         vertex -3.000000e+00 1.000000e+00 5.100000e+01
         vertex -3.000000e+00 1.000000e+00 2.100000e+01
         vertex -3.000000e+00 -1.000000e+00 2.100000e+01
      endloop
   endfacet
   facet normal -1.000000e+00 0.000000e+00 0.000000e+00
      outer loop
         vertex -3.000000e+00 1.000000e+00 5.100000e+01
         vertex -3.000000e+00 -1.000000e+00 2.100000e+01
         vertex -3.000000e+00 -1.000000e+00 5.100000e+01
      endloop
   endfacet
   facet normal -1.000000e+00 0.000000e+00 0.000000e+00
      outer loop
         vertex 1.000000e+00 1.000000e+00 5.100000e+01
         vertex 1.000000e+00 1.000000e+00 2.100000e+01
         vertex 1.000000e+00 -1.000000e+00 2.100000e+01
      endloop
   endfacet
   facet normal -1.000000e+00 0.000000e+00 0.000000e+00
      outer loop
         vertex 1.000000e+00 1.000000e+00 5.100000e+01
         vertex 1.000000e+00 -1.000000e+00 2.100000e+01
         vertex 1.000000e+00 -1.000000e+00 5.100000e+01
      endloop
   endfacet
   facet normal 0.000000e+00 1.000000e+00 -0.000000e+00
      outer loop
         vertex 3.000000e+00 1.000000e+00 5.100000e+01
         vertex 3.000000e+00 1.000000e+00 2.100000e+01
         vertex 1.000000e+00 1.000000e+00 2.100000e+01
      endloop
   endfacet
   facet normal 0.000000e+00 1.000000e+00 0.000000e+00
      outer loop
         vertex 3.000000e+00 1.000000e+00 5.100000e+01
         vertex 1.000000e+00 1.000000e+00 2.100000e+01
         vertex 1.000000e+00 1.000000e+00 5.100000e+01
      endloop
   endfacet
   facet normal 1.000000e+00 0.000000e+00 0.000000e+00
      outer loop
         vertex 3.000000e+00 -1.000000e+00 5.100000e+01
         vertex 3.000000e+00 -1.000000e+00 2.100000e+01
         vertex 3.000000e+00 1.000000e+00 2.100000e+01
      endloop
   endfacet
   facet normal 1.000000e+00 0.000000e+00 -0.000000e+00
      outer loop
         vertex 3.000000e+00 -1.000000e+00 5.100000e+01
         vertex 3.000000e+00 1.000000e+00 2.100000e+01
         vertex 3.000000e+00 1.000000e+00 5.100000e+01
      endloop
   endfacet
   facet normal 0.000000e+00 -1.000000e+00 0.000000e+00
      outer loop
         vertex 1.000000e+00 -1.000000e+00 5.100000e+01
         vertex 1.000000e+00 -1.000000e+00 2.100000e+01
         vertex 3.000000e+00 -1.000000e+00 2.100000e+01
      endloop
   endfacet
   facet normal 0.000000e+00 -1.000000e+00 0.000000e+00
      outer loop
         vertex 1.000000e+00 -1.000000e+00 5.100000e+01
         vertex 3.000000e+00 -1.000000e+00 2.100000e+01
         vertex 3.000000e+00 -1.000000e+00 5.100000e+01
      endloop
   endfacet
   facet normal 0.000000e+00 0.000000e+00 1.000000e+00
      outer loop
         vertex -4.000000e+00 4.000000e+00 8.000000e+00
         vertex -4.000000e+00 2.000000e+00 8.000000e+00
         vertex 4.000000e+00 2.000000e+00 8.000000e+00
      endloop
   endfacet
   facet normal 0.000000e+00 -0.000000e+00 1.000000e+00
      outer loop
         vertex -4.000000e+00 4.000000e+00 8.000000e+00
         vertex 4.000000e+00 2.000000e+00 8.000000e+00
         vertex 4.000000e+00 4.000000e+00 8.000000e+00
      endloop
   endfacet
   facet normal 0.000000e+00 1.000000e+00 -0.000000e+00
      outer loop
         vertex 4.000000e+00 4.000000e+00 8.000000e+00
         vertex 4.000000e+00 4.000000e+00 0.000000e+00
         vertex -4.000000e+00 4.000000e+00 0.000000e+00
      endloop
   endfacet
   facet normal 0.000000e+00 1.000000e+00 0.000000e+00
      outer loop
         vertex 4.000000e+00 4.000000e+00 8.000000e+00
         vertex -4.000000e+00 4.000000e+00 0.000000e+00
         vertex -4.000000e+00 4.000000e+00 8.000000e+00
      endloop
   endfacet
   facet normal 0.000000e+00 0.000000e+00 -1.000000e+00
      outer loop
         vertex -4.000000e+00 -4.000000e+00 0.000000e+00
         vertex -4.000000e+00 4.000000e+00 0.000000e+00
         vertex 4.000000e+00 4.000000e+00 0.000000e+00
      endloop
   endfacet
   facet normal 0.000000e+00 0.000000e+00 -1.000000e+00
      outer loop
         vertex 4.000000e+00 -4.000000e+00 0.000000e+00
         vertex -4.000000e+00 -4.000000e+00 0.000000e+00
         vertex 4.000000e+00 4.000000e+00 0.000000e+00
      endloop
   endfacet
   facet normal 0.000000e+00 -1.000000e+00 0.000000e+00
      outer loop
         vertex -4.000000e+00 -4.000000e+00 8.000000e+00
         vertex -4.000000e+00 -4.000000e+00 0.000000e+00
         vertex 4.000000e+00 -4.000000e+00 0.000000e+00
      endloop
   endfacet
   facet normal 0.000000e+00 -1.000000e+00 0.000000e+00
      outer loop
         vertex -4.000000e+00 -4.000000e+00 8.000000e+00
         vertex 4.000000e+00 -4.000000e+00 0.000000e+00
         vertex 4.000000e+00 -4.000000e+00 8.000000e+00
      endloop
   endfacet
   facet normal 0.000000e+00 0.000000e+00 1.000000e+00
      outer loop
         vertex 4.000000e+00 -4.000000e+00 8.000000e+00
         vertex 4.000000e+00 -2.000000e+00 8.000000e+00
         vertex -4.000000e+00 -2.000000e+00 8.000000e+00
      endloop
   endfacet
   facet normal 0.000000e+00 0.000000e+00 1.000000e+00
      outer loop
         vertex 4.000000e+00 -4.000000e+00 8.000000e+00
         vertex -4.000000e+00 -2.000000e+00 8.000000e+00
         vertex -4.000000e+00 -4.000000e+00 8.000000e+00
      endloop
   endfacet
   facet normal 0.000000e+00 0.000000e+00 1.000000e+00
      outer loop
         vertex -1.000000e+00 -1.000000e+00 5.100000e+01
         vertex -1.000000e+00 1.000000e+00 5.100000e+01
         vertex -3.000000e+00 1.000000e+00 5.100000e+01
      endloop
   endfacet
   facet normal 0.000000e+00 0.000000e+00 1.000000e+00
      outer loop
         vertex -1.000000e+00 -1.000000e+00 5.100000e+01
         vertex -3.000000e+00 1.000000e+00 5.100000e+01
         vertex -3.000000e+00 -1.000000e+00 5.100000e+01
      endloop
   endfacet
   facet normal -0.000000e+00 0.000000e+00 1.000000e+00
      outer loop
         vertex 3.000000e+00 1.000000e+00 5.100000e+01
         vertex 1.000000e+00 1.000000e+00 5.100000e+01
         vertex 1.000000e+00 -1.000000e+00 5.100000e+01
      endloop
   endfacet
   facet normal 0.000000e+00 0.000000e+00 1.000000e+00
      outer loop
         vertex 3.000000e+00 1.000000e+00 5.100000e+01
         vertex 1.000000e+00 -1.000000e+00 5.100000e+01
         vertex 3.000000e+00 -1.000000e+00 5.100000e+01
      endloop
   endfacet
   facet normal -0.000000e+00 -1.000000e+00 -0.000000e+00
      outer loop
         vertex 6.000000e+00 -1.000000e+00 -1.776357e-15
         vertex 6.000000e+00 -1.000000e+00 8.800000e+00
         vertex 4.200000e+00 -1.000000e+00 8.800000e+00
      endloop
   endfacet
   facet normal 0.000000e+00 -1.000000e+00 0.000000e+00
      outer loop
         vertex 6.000000e+00 -1.000000e+00 -1.776357e-15
         vertex 4.200000e+00 -1.000000e+00 8.800000e+00
         vertex 4.200000e+00 -1.000000e+00 -1.776357e-15
      endloop
   endfacet
   facet normal -1.000000e+00 0.000000e+00 0.000000e+00
      outer loop
         vertex 4.200000e+00 -1.000000e+00 -1.776357e-15
         vertex 4.200000e+00 -1.000000e+00 8.800000e+00
         vertex 4.200000e+00 1.000000e+00 8.800000e+00
      endloop
   endfacet
   facet normal -1.000000e+00 0.000000e+00 -0.000000e+00
      outer loop
         vertex 4.200000e+00 -1.000000e+00 -1.776357e-15
         vertex 4.200000e+00 1.000000e+00 8.800000e+00
         vertex 4.200000e+00 1.000000e+00 -1.776357e-15
      endloop
   endfacet
   facet normal -0.000000e+00 1.000000e+00 0.000000e+00
      outer loop
         vertex 4.200000e+00 1.000000e+00 -1.776357e-15
         vertex 4.200000e+00 1.000000e+00 8.800000e+00
         vertex 6.000000e+00 1.000000e+00 8.800000e+00
      endloop
   endfacet
   facet normal 0.000000e+00 1.000000e+00 0.000000e+00
      outer loop
         vertex 4.200000e+00 1.000000e+00 -1.776357e-15
         vertex 6.000000e+00 1.000000e+00 8.800000e+00
         vertex 6.000000e+00 1.000000e+00 -1.776357e-15
      endloop
   endfacet
   facet normal 1.000000e+00 0.000000e+00 0.000000e+00
      outer loop
         vertex 6.000000e+00 1.000000e+00 -1.776357e-15
         vertex 6.000000e+00 1.000000e+00 8.800000e+00
         vertex 6.000000e+00 -1.000000e+00 8.800000e+00
      endloop
   endfacet
   facet normal 1.000000e+00 0.000000e+00 0.000000e+00
      outer loop
         vertex 6.000000e+00 1.000000e+00 -1.776357e-15
         vertex 6.000000e+00 -1.000000e+00 8.800000e+00
         vertex 6.000000e+00 -1.000000e+00 -1.776357e-15
      endloop
   endfacet
   facet normal -2.960595e-16 0.000000e+00 -1.000000e+00
      outer loop
         vertex 6.000000e+00 1.000000e+00 -1.776357e-15
         vertex 6.000000e+00 -1.000000e+00 -1.776357e-15
         vertex 4.200000e+00 -1.000000e+00 -1.243450e-15
      endloop
   endfacet
   facet normal -2.960595e-16 0.000000e+00 -1.000000e+00
      outer loop
         vertex 6.000000e+00 1.000000e+00 -1.776357e-15
         vertex 4.200000e+00 -1.000000e+00 -1.243450e-15
         vertex 4.200000e+00 1.000000e+00 -1.243450e-15
      endloop
   endfacet
   facet normal 0.000000e+00 -0.000000e+00 1.000000e+00
      outer loop
         vertex 4.200000e+00 -1.000000e+00 8.800000e+00
         vertex 6.000000e+00 -1.000000e+00 8.800000e+00
         vertex 6.000000e+00 1.000000e+00 8.800000e+00
      endloop
   endfacet
   facet normal 0.000000e+00 0.000000e+00 1.000000e+00
      outer loop
         vertex 4.200000e+00 1.000000e+00 8.800000e+00
         vertex 4.200000e+00 -1.000000e+00 8.800000e+00
         vertex 6.000000e+00 1.000000e+00 8.800000e+00
      endloop
   endfacet
   facet normal -0.000000e+00 -1.000000e+00 -0.000000e+00
      outer loop
         vertex -4.200000e+00 -1.000000e+00 1.776357e-15
         vertex -4.200000e+00 -1.000000e+00 8.800000e+00
         vertex -6.000000e+00 -1.000000e+00 8.800000e+00
      endloop
   endfacet
   facet normal 0.000000e+00 -1.000000e+00 0.000000e+00
      outer loop
         vertex -4.200000e+00 -1.000000e+00 1.776357e-15
         vertex -6.000000e+00 -1.000000e+00 8.800000e+00
         vertex -6.000000e+00 -1.000000e+00 1.776357e-15
      endloop
   endfacet
   facet normal -1.000000e+00 0.000000e+00 0.000000e+00
      outer loop
         vertex -6.000000e+00 -1.000000e+00 1.776357e-15
         vertex -6.000000e+00 -1.000000e+00 8.800000e+00
         vertex -6.000000e+00 1.000000e+00 8.800000e+00
      endloop
   endfacet
   facet normal -1.000000e+00 0.000000e+00 -0.000000e+00
      outer loop
         vertex -6.000000e+00 -1.000000e+00 1.776357e-15
         vertex -6.000000e+00 1.000000e+00 8.800000e+00
         vertex -6.000000e+00 1.000000e+00 1.776357e-15
      endloop
   endfacet
   facet normal -0.000000e+00 1.000000e+00 0.000000e+00
      outer loop
         vertex -6.000000e+00 1.000000e+00 1.776357e-15
         vertex -6.000000e+00 1.000000e+00 8.800000e+00
         vertex -4.200000e+00 1.000000e+00 8.800000e+00
      endloop
   endfacet
   facet normal 0.000000e+00 1.000000e+00 0.000000e+00
      outer loop
         vertex -6.000000e+00 1.000000e+00 1.776357e-15
         vertex -4.200000e+00 1.000000e+00 8.800000e+00
         vertex -4.200000e+00 1.000000e+00 1.776357e-15
      endloop
   endfacet
   facet normal 1.000000e+00 0.000000e+00 0.000000e+00
      outer loop
         vertex -4.200000e+00 1.000000e+00 1.776357e-15
         vertex -4.200000e+00 1.000000e+00 8.800000e+00
         vertex -4.200000e+00 -1.000000e+00 8.800000e+00
      endloop
   endfacet
   facet normal 1.000000e+00 0.000000e+00 0.000000e+00
      outer loop
         vertex -4.200000e+00 1.000000e+00 1.776357e-15
         vertex -4.200000e+00 -1.000000e+00 8.800000e+00
         vertex -4.200000e+00 -1.000000e+00 1.776357e-15
      endloop
   endfacet
   facet normal -2.960595e-16 0.000000e+00 -1.000000e+00
      outer loop
         vertex -4.200000e+00 1.000000e+00 1.243450e-15
         vertex -4.200000e+00 -1.000000e+00 1.243450e-15
         vertex -6.000000e+00 -1.000000e+00 1.776357e-15
      endloop
   endfacet
   facet normal -2.960595e-16 0.000000e+00 -1.000000e+00
      outer loop
         vertex -4.200000e+00 1.000000e+00 1.243450e-15
         vertex -6.000000e+00 -1.000000e+00 1.776357e-15
         vertex -6.000000e+00 1.000000e+00 1.776357e-15
      endloop
   endfacet
   facet normal 0.000000e+00 -0.000000e+00 1.000000e+00
      outer loop
         vertex -6.000000e+00 -1.000000e+00 8.800000e+00
         vertex -4.200000e+00 -1.000000e+00 8.800000e+00
         vertex -4.200000e+00 1.000000e+00 8.800000e+00
      endloop
   endfacet
   facet normal 0.000000e+00 0.000000e+00 1.000000e+00
      outer loop
         vertex -6.000000e+00 1.000000e+00 8.800000e+00
         vertex -6.000000e+00 -1.000000e+00 8.800000e+00
         vertex -4.200000e+00 1.000000e+00 8.800000e+00
      endloop
   endfacet
endsolid
